HIERARCHY
ROOT Hips
{
	OFFSET -3.958830 18.904000 13.208200
	CHANNELS 6 Xposition Yposition Zposition Zrotation Yrotation Xrotation 
	JOINT LHipJoint
	{
		OFFSET 0.000000 0.000000 0.000000
		CHANNELS 3 Zrotation Yrotation Xrotation
		JOINT LeftUpLeg
		{
			OFFSET 1.800000 -1.400000 0.085000
			CHANNELS 3 Zrotation Yrotation Xrotation
			JOINT LeftLeg
			{
				OFFSET 2.215000 -6.000000 0.000000
				CHANNELS 3 Zrotation Yrotation Xrotation
				JOINT LeftFoot
				{
					OFFSET 2.500000 -6.900000 0.000000
					CHANNELS 3 Zrotation Yrotation Xrotation
					JOINT LeftToeBase
					{
						OFFSET 0.200000 -0.500000 1.950000
						CHANNELS 3 Zrotation Yrotation Xrotation
						End Site
						{
							OFFSET 0.000000 0.000000 0.000000
						}
					}
				}
			}
		}
	}
	JOINT RHipJoint
	{
		OFFSET 0.000000 0.000000 0.000000
		CHANNELS 3 Zrotation Yrotation Xrotation
		JOINT RightUpLeg
		{
			OFFSET -1.800000 -1.400000 0.085000
			CHANNELS 3 Zrotation Yrotation Xrotation
			JOINT RightLeg
			{
				OFFSET -2.215000 -6.000000 0.000000
				CHANNELS 3 Zrotation Yrotation Xrotation
				JOINT RightFoot
				{
					OFFSET -2.500000 -6.900000 0.000000
					CHANNELS 3 Zrotation Yrotation Xrotation
					JOINT RightToeBase
					{
						OFFSET -0.200000 -0.500000 1.950000
						CHANNELS 3 Zrotation Yrotation Xrotation
						End Site
						{
							OFFSET 0.000000 0.000000 0.000000
						}
					}
				}
			}
		}
	}
	JOINT LowerBack
	{
		OFFSET 0.000000 0.000000 0.000000
		CHANNELS 3 Zrotation Yrotation Xrotation
		JOINT Spine
		{
			OFFSET -0.087000 1.940000 -0.288900
			CHANNELS 3 Zrotation Yrotation Xrotation
			JOINT Spine1
			{
				OFFSET 0.000000 1.950000 0.060000
				CHANNELS 3 Zrotation Yrotation Xrotation
				JOINT Neck
				{
					OFFSET 0.000000 0.000000 0.000000
					CHANNELS 3 Zrotation Yrotation Xrotation
					JOINT Neck1
					{
						OFFSET 0.000000 1.600000 0.340000
						CHANNELS 3 Zrotation Yrotation Xrotation
						JOINT Head
						{
							OFFSET 0.000000 1.667000 -0.240000
							CHANNELS 3 Zrotation Yrotation Xrotation
							End Site
							{
								OFFSET 0.000000 0.000000 0.000000
							}
						}
					}
				}
				JOINT LeftShoulder
				{
					OFFSET 0.000000 0.000000 0.000000
					CHANNELS 3 Zrotation Yrotation Xrotation
					JOINT LeftArm
					{
						OFFSET 2.700000 1.550000 -0.730000
						CHANNELS 3 Zrotation Yrotation Xrotation
						JOINT LeftForeArm
						{
							OFFSET 5.450000 0.000000 0.000000
							CHANNELS 3 Zrotation Yrotation Xrotation
							JOINT LeftHand
							{
								OFFSET 3.450000 0.000000 0.000000
								CHANNELS 3 Zrotation Yrotation Xrotation
								JOINT LeftHandIndex1
								{
									OFFSET 0.750000 0.000000 0.000000
									CHANNELS 3 Zrotation Yrotation Xrotation
									End Site
									{
										OFFSET 0.000000 0.000000 0.000000
									}
								}
							}
						}
					}
				}
				JOINT RightShoulder
				{
					OFFSET 0.000000 0.000000 0.000000
					CHANNELS 3 Zrotation Yrotation Xrotation
					JOINT RightArm
					{
						OFFSET -2.700000 1.550000 -0.730000
						CHANNELS 3 Zrotation Yrotation Xrotation
						JOINT RightForeArm
						{
							OFFSET -5.450000 0.000000 0.000000
							CHANNELS 3 Zrotation Yrotation Xrotation
							JOINT RightHand
							{
								OFFSET -3.450000 0.000000 0.000000
								CHANNELS 3 Zrotation Yrotation Xrotation
								JOINT RightHandIndex1
								{
									OFFSET -0.750000 0.000000 0.000000
									CHANNELS 3 Zrotation Yrotation Xrotation
									End Site
									{
										OFFSET 0.000000 0.000000 0.000000
									}
								}
							}
						}
					}
				}
			}
		}
	}
}
MOTION
Frames: 12
Frame Time: 0.016667
-0.205410 16.587970 -2.730470 0.442491 -14.420622 6.098133 -15.410766 14.057294 3.185130 7.436466 -4.584079 -21.998847 -4.652786 6.580807 23.161717 -0.264701 4.861920 3.054486 -0.386370 -0.734900 -0.331770 17.942527 -10.413322 2.165497 -18.679648 -0.927465 -21.718182 2.321183 -4.457330 11.949617 0.371628 -3.036874 3.513878 -0.312430 0.630740 0.021950 -2.567221 -4.270129 -6.894182 3.043292 -0.251724 5.054258 2.465836 -0.105564 -2.826450 0.853022 -6.001505 -5.724065 -12.700492 2.404134 23.897702 -5.610870 2.637230 8.301110 -18.567258 5.001952 -2.736847 -70.733596 -11.271505 2.052400 -24.724944 -11.704803 1.563357 -4.213688 2.964351 0.112900 0.437010 -0.538900 0.050880 18.000150 -2.073843 4.753944 73.611876 -18.673114 -19.660731 2.741463 12.452582 -1.503956 2.335595 -0.983903 -0.409380 0.179330 0.354050 -0.139560 
-0.222430 16.587600 -2.727460 0.625959 -14.238937 5.840279 -15.401394 14.038690 3.197705 7.486126 -4.599970 -21.909815 -4.782973 6.637735 23.254563 -0.262049 4.876104 3.040663 -0.384370 -0.739330 -0.324060 17.939447 -10.464965 2.173586 -18.919957 -0.962795 -21.545145 2.473321 -4.566802 12.205506 0.356794 -3.064740 3.499714 -0.322900 0.612510 0.021380 -2.570411 -4.153442 -6.944495 2.781982 0.014232 5.339492 2.390005 0.181433 -3.256555 0.901182 -5.890034 -5.747650 -12.680331 2.249164 24.748797 -5.419070 2.368990 8.104890 -19.474088 4.827795 -2.669415 -69.191223 -10.297340 1.103602 -25.458553 -13.004824 1.745546 -4.191294 2.952752 0.137290 0.417500 -0.521950 0.044120 18.833039 -1.810922 4.722372 73.482251 -18.809640 -19.348062 2.217042 11.411327 -1.392788 2.353390 -0.960912 -0.405910 0.179110 0.356550 -0.145840 
-0.249060 16.586810 -2.722760 0.793454 -14.049423 5.476506 -15.381563 14.021431 3.198030 7.409156 -4.606888 -21.836351 -4.510963 6.599023 23.569398 -0.254717 4.870401 3.037178 -0.388050 -0.745190 -0.325870 17.941463 -10.549775 2.190978 -19.277579 -0.999938 -21.385966 2.885855 -4.805707 12.868265 0.343988 -3.141837 3.464943 -0.333270 0.602860 0.019110 -2.593296 -3.971633 -7.001101 2.645445 0.402150 5.822520 2.303306 0.622784 -3.860567 0.924631 -5.878680 -5.717251 -12.770974 2.120500 25.478331 -5.114860 1.968530 8.124600 -21.226258 4.994413 -2.761911 -66.446134 -8.399684 -0.567341 -27.041984 -15.395831 2.189058 -4.168412 2.950326 0.149910 0.401900 -0.510970 0.039870 20.542923 -1.749032 4.848790 71.959277 -19.831496 -19.383735 3.519709 11.894224 -1.370008 2.340534 -0.945339 -0.401580 0.180170 0.360170 -0.144140 
-0.279840 16.581330 -2.719530 0.700920 -14.048761 5.159242 -15.326868 13.988152 3.195619 7.677530 -4.540953 -21.816490 -4.322992 6.639569 23.961802 -0.255191 4.899250 3.025811 -0.384580 -0.749580 -0.327000 17.973717 -10.670827 2.217901 -19.346052 -0.922040 -21.469942 3.296977 -5.084181 13.981990 0.332772 -3.218996 3.438566 -0.337520 0.598710 0.004440 -2.708281 -3.684069 -7.065001 3.240052 0.773889 6.420336 1.773242 1.092620 -4.484405 0.914343 -5.975816 -5.853580 -13.045642 2.250072 26.329011 -4.352180 1.486090 8.186450 -22.603770 5.051219 -2.625413 -63.452338 -6.124444 -2.362211 -29.345202 -18.444506 2.910818 -4.128776 2.951974 0.174620 0.381320 -0.505160 0.045360 21.850388 -1.475595 4.962136 70.672170 -20.327342 -19.259793 4.243334 12.375493 -1.336854 2.324812 -0.937947 -0.410870 0.194350 0.358340 -0.146150 
-0.312290 16.576030 -2.718800 0.538308 -14.274595 4.975066 -15.262796 13.931592 3.198700 8.042021 -4.498161 -22.067457 -4.105899 6.785291 24.890213 -0.230766 4.990191 2.987459 -0.386430 -0.749970 -0.337630 18.020220 -10.785647 2.255718 -19.268691 -0.738157 -21.766243 3.658429 -5.330566 15.115911 0.324736 -3.285292 3.418576 -0.345540 0.595850 -0.009730 -2.858814 -3.350244 -7.124730 4.033819 0.998163 6.987578 0.940749 1.411411 -5.085650 0.992511 -5.977725 -6.038691 -12.976818 2.677274 26.981440 -3.450940 1.382610 8.326210 -23.246252 5.526877 -2.245038 -61.032359 -3.261409 -4.441422 -31.669140 -22.772442 4.025912 -4.087631 2.965528 0.187440 0.364010 -0.500000 0.051520 22.199546 -1.679843 4.826379 69.730698 -20.089577 -19.010900 4.711935 13.031621 -1.299312 2.321629 -0.937703 -0.412000 0.201380 0.355800 -0.142010 
-0.347780 16.558670 -2.716780 0.344091 -14.702112 5.034445 -15.207195 13.838590 3.174289 8.454625 -4.397637 -22.405872 -3.930870 7.019012 25.987810 -0.216414 5.163765 2.926007 -0.390420 -0.755040 -0.355720 18.079552 -10.870630 2.282703 -19.028171 -0.423620 -22.292612 3.812237 -5.472039 16.150864 0.330364 -3.358017 3.386880 -0.340210 0.625660 -0.000170 -3.024777 -2.985482 -7.094525 4.682160 1.053880 7.071687 0.274062 1.488539 -5.135691 0.825367 -5.910164 -5.900611 -12.312023 3.247511 26.283042 -2.810120 1.658710 8.291290 -23.209333 6.575494 -1.774640 -59.285847 -0.371208 -6.301390 -34.311590 -27.958123 5.663733 -4.087876 3.012076 0.175890 0.381330 -0.517930 0.059780 22.274000 -2.532937 4.147379 68.166407 -18.785429 -18.212449 3.788295 14.088409 -1.302102 2.305133 -0.983385 -0.418160 0.203480 0.365880 -0.134760 
-0.389970 16.538230 -2.715970 0.378244 -15.354670 5.131018 -15.190765 13.775281 3.170924 8.868862 -4.337253 -22.835758 -3.917824 7.385623 27.302444 -0.201838 5.431885 2.844582 -0.415930 -0.781680 -0.397540 18.109434 -10.897703 2.283303 -18.725125 -0.122140 -22.934735 3.589325 -5.481022 17.088757 0.360896 -3.402326 3.381712 -0.332710 0.690520 -0.004770 -3.089669 -2.791838 -7.048192 4.578120 0.941003 7.055954 0.239739 1.367955 -5.284934 0.460153 -6.066255 -5.608471 -12.038286 4.159934 24.930368 -2.096780 2.003370 8.621030 -23.083291 8.057578 -1.412898 -57.846560 2.510174 -7.749513 -37.153371 -33.116330 7.738182 -4.110445 3.054180 0.150430 0.420480 -0.566050 0.070520 22.787753 -3.720818 3.429438 65.303314 -17.924461 -17.458339 4.071448 16.130051 -1.280038 2.256440 -1.031045 -0.447920 0.228510 0.391560 -0.125080 
-0.433400 16.519940 -2.714720 0.457979 -16.151030 5.117896 -15.185951 13.741719 3.152484 9.095658 -4.236335 -23.166433 -3.514743 7.670707 28.857885 -0.181278 5.695517 2.761239 -0.436830 -0.796410 -0.430550 18.126884 -10.914093 2.288761 -18.418229 0.176007 -23.485006 3.361425 -5.453948 17.871680 0.386301 -3.435053 3.379644 -0.322530 0.743290 -0.008940 -3.116691 -2.654051 -7.002559 4.213474 0.692347 7.005024 0.432687 1.092467 -5.346213 0.120115 -6.150121 -5.333324 -11.787117 5.211274 23.939200 -1.755580 2.701070 8.856610 -22.777820 9.300818 -0.929777 -56.870910 5.325024 -9.025977 -39.040012 -37.076231 9.416604 -4.130001 3.086488 0.125520 0.456910 -0.603510 0.077820 23.117483 -4.719399 2.611827 62.414241 -16.398824 -16.412961 4.367908 17.715627 -1.188856 2.222962 -1.075145 -0.471540 0.250360 0.411530 -0.117150 
-0.473080 16.506920 -2.709430 0.376586 -17.140764 5.022469 -15.182058 13.751514 3.126305 9.358762 -4.015598 -23.207236 -3.166626 7.972462 30.233447 -0.149871 5.933841 2.676917 -0.436690 -0.788850 -0.442030 18.135919 -10.926571 2.298698 -17.952620 0.495639 -23.989378 3.050555 -5.388093 18.709517 0.396189 -3.441065 3.380457 -0.309400 0.764060 -0.013290 -3.123109 -2.585307 -6.975622 4.003430 0.363759 7.131986 0.871031 0.780301 -5.572729 -0.170879 -6.344209 -5.063337 -11.906581 6.502373 23.351502 -1.382050 3.583830 8.782230 -22.509779 10.692199 -0.462109 -56.677535 8.244851 -10.322726 -40.046466 -40.184727 10.629583 -4.121059 3.115775 0.114690 0.468960 -0.617440 0.084730 23.412565 -5.769125 1.805731 59.436101 -14.884437 -15.653522 4.396740 20.425702 -1.037517 2.188315 -1.125438 -0.481070 0.260060 0.414810 -0.113390 
-0.513320 16.494600 -2.702830 0.259931 -18.170786 4.917460 -15.182243 13.780660 3.103697 9.573043 -3.797990 -23.340674 -2.589526 8.192451 31.661463 -0.119568 6.152779 2.594505 -0.433600 -0.777110 -0.455970 18.139854 -10.922599 2.314720 -17.526719 0.801071 -24.477555 2.870099 -5.377340 19.612840 0.396505 -3.457364 3.377213 -0.299590 0.779850 -0.016190 -3.115070 -2.579196 -6.962615 3.755604 -0.142287 7.341548 1.444074 0.309738 -6.017616 -0.501117 -6.570809 -4.810062 -12.184047 8.067518 22.979787 -0.692470 4.497480 8.484600 -21.584783 12.365046 0.047949 -57.167030 10.947075 -11.296378 -40.928971 -42.169933 11.543904 -4.104870 3.134001 0.116380 0.471620 -0.621550 0.092080 23.163440 -7.099306 0.813185 56.838340 -12.824438 -14.798798 4.338195 23.162319 -0.790527 2.163324 -1.157451 -0.486720 0.270690 0.419340 -0.108350 
-0.556740 16.481420 -2.698440 0.347920 -19.275902 4.831678 -15.196321 13.813747 3.089222 9.578098 -3.591990 -23.462834 -2.097353 8.424266 32.979437 -0.077227 6.359654 2.520434 -0.436450 -0.777820 -0.456230 18.131584 -10.904836 2.329954 -17.140671 1.081929 -25.070479 2.461719 -5.280091 20.384305 0.397735 -3.444628 3.383026 -0.302720 0.786430 -0.014440 -3.066114 -2.606361 -6.955465 3.041748 -0.662927 7.487388 2.121313 -0.197359 -6.331272 -0.734836 -6.644287 -4.777516 -12.173265 9.438826 22.608439 -0.509520 5.673420 8.298920 -20.146652 13.732102 0.808234 -58.068649 13.609326 -12.197142 -42.651708 -43.769233 12.694696 -4.085201 3.154468 0.118820 0.473890 -0.619370 0.092610 22.289745 -8.215363 -0.129185 55.292766 -10.369423 -14.051527 4.235606 26.025556 -0.501694 2.152720 -1.177020 -0.488600 0.272070 0.420070 -0.108750 
-0.601390 16.470660 -2.693900 0.111762 -20.269725 4.775536 -15.205447 13.883051 3.071566 9.880250 -3.317401 -23.421964 -1.644828 8.637384 34.043761 -0.049004 6.547365 2.449031 -0.450020 -0.792100 -0.455120 18.120947 -10.891575 2.339832 -16.364639 1.366814 -25.430266 1.973507 -5.159937 21.166724 0.399486 -3.417712 3.403879 -0.314010 0.786540 -0.018090 -3.016705 -2.690471 -6.964727 2.740274 -1.244119 7.727019 2.630281 -0.739134 -6.650427 -0.716796 -6.558842 -4.855501 -11.984715 10.697326 22.698293 -0.682960 7.176740 8.213040 -18.716417 14.779367 1.336835 -58.502132 15.507722 -12.426884 -44.384119 -43.228204 13.181124 -4.078134 3.143180 0.133750 0.475930 -0.614540 0.084570 20.931075 -9.269721 -0.773005 54.707710 -8.371920 -13.775013 4.457662 30.353236 -0.042003 2.120648 -1.187864 -0.498920 0.275420 0.426750 -0.119590 
